<?xml version="1.0" standalone="no"?>
<!DOCTYPE svg PUBLIC "-//W3C//DTD SVG 20010904//EN"
 "http://www.w3.org/TR/2001/REC-SVG-20010904/DTD/svg10.dtd">
<svg version="1.0" xmlns="http://www.w3.org/2000/svg"
 width="256.000000pt" height="256.000000pt" viewBox="0 0 256.000000 256.000000"
 preserveAspectRatio="xMidYMid meet">
<metadata>
Created by potrace 1.16, written by Peter Selinger 2001-2019
</metadata>
<g transform="translate(0.000000,256.000000) scale(0.100000,-0.100000)"
fill="#000000" stroke="none">
<path d="M1215 2458 c-66 -77 -179 -351 -200 -483 -3 -22 10 7 28 65 45 138
76 219 120 307 40 78 91 143 113 143 31 0 134 -232 134 -303 0 -24 -9 -77 -20
-118 -12 -41 -30 -117 -41 -169 -11 -52 -28 -117 -39 -145 l-19 -50 -7 33 -7
33 -19 -43 c-11 -24 -22 -67 -25 -96 l-6 -53 -22 21 c-24 23 -35 25 -35 8 0
-6 3 -8 7 -5 4 4 19 -4 33 -18 l27 -26 6 59 c4 33 12 72 18 88 l12 29 8 -32
c14 -50 26 -47 35 10 l8 52 5 -57 c4 -31 9 -59 12 -63 4 -3 14 12 22 33 9 22
39 67 67 101 54 65 80 115 80 154 0 13 3 27 8 31 4 4 15 26 24 49 15 37 17 39
17 15 2 -56 10 -56 69 2 31 31 75 71 97 89 38 32 38 32 6 15 -18 -11 -62 -45
-97 -77 l-64 -59 0 31 c0 50 -16 44 -43 -16 -28 -61 -28 -61 -48 27 -28 127
-136 398 -176 442 -25 28 -48 22 -88 -24z"/>
<path d="M2059 2419 c-32 -17 -129 -276 -129 -342 0 -32 -15 -8 -30 45 -21 81
-33 79 -85 -14 l-46 -83 5 70 5 70 -14 -75 c-20 -110 -19 -118 5 -87 12 15 38
56 59 91 37 63 38 65 49 42 21 -47 43 -180 36 -219 -6 -39 -6 -40 20 -35 26 5
26 5 9 -16 -10 -11 -27 -29 -38 -38 -11 -10 -15 -18 -10 -18 6 0 11 -75 13
-198 1 -123 6 -205 13 -219 7 -12 36 -34 65 -50 29 -15 50 -31 48 -35 -3 -4
-1 -8 4 -8 16 0 22 -40 10 -66 -16 -34 -69 -56 -131 -52 -42 2 -52 6 -51 20 2
16 -1 16 -23 -2 -59 -46 -182 -49 -259 -6 -61 34 -74 106 -20 106 41 0 74 21
86 53 13 39 13 138 -1 174 -16 42 -69 92 -105 99 -142 26 -256 -206 -152 -309
41 -41 17 -56 -31 -20 -39 30 -136 73 -166 72 -11 0 4 -8 33 -18 68 -24 181
-101 232 -159 22 -24 40 -42 40 -38 0 4 -23 31 -50 60 -44 47 -48 54 -31 59
72 18 122 -41 139 -164 21 -150 60 -239 104 -239 27 0 95 67 195 191 58 72 95
109 108 109 35 1 69 27 95 71 14 23 32 45 40 47 13 4 12 2 -1 -14 -9 -10 -19
-26 -23 -34 -4 -8 3 -1 15 15 13 17 38 45 55 63 18 17 29 32 25 32 -4 0 -18
-11 -31 -25 -28 -30 -65 -27 -112 8 -25 18 -26 22 -14 46 7 14 16 41 19 59 6
29 4 33 -12 27 -10 -3 -24 1 -31 10 -11 13 -10 20 8 44 l20 28 -21 23 -22 22
22 -11 c39 -20 56 -66 51 -142 -2 -38 0 -63 5 -56 5 7 6 -3 3 -23 -5 -26 -4
-30 3 -15 14 29 13 141 -1 187 -12 40 -49 78 -76 78 -9 0 -25 -9 -37 -20 l-22
-21 -7 79 c-3 43 -3 99 0 125 l7 48 21 -20 c12 -11 39 -49 61 -85 22 -36 43
-66 48 -66 4 0 7 12 8 28 l1 27 8 -25 c4 -14 8 -41 9 -61 1 -47 10 -54 38 -27
l23 22 -6 -75 c-5 -79 9 -126 37 -122 35 5 112 31 92 32 -12 1 -33 -3 -46 -8
l-25 -10 24 59 c34 85 46 178 36 285 l-9 90 -2 -99 c-1 -86 -5 -106 -28 -152
-15 -30 -37 -66 -50 -81 l-22 -28 6 65 6 65 -26 -23 -25 -24 -7 34 c-17 85
-27 111 -35 98 -6 -10 -10 -8 -13 11 -3 13 -21 94 -41 179 -51 223 -51 219
-26 302 28 94 77 198 94 198 33 0 90 -153 131 -353 13 -61 24 -100 24 -85 1
44 -37 229 -64 307 -39 116 -72 160 -106 140z m-594 -829 c-3 -5 -2 -10 4 -10
5 0 13 5 16 10 3 6 20 10 38 10 l31 0 -22 -16 -23 -16 26 -23 c14 -13 25 -30
25 -38 0 -24 -37 -50 -65 -45 -21 5 -25 2 -25 -19 0 -33 28 -90 52 -107 18
-13 18 -14 -4 -19 -46 -12 -88 57 -88 145 0 29 7 66 15 82 20 38 12 45 -12 10
-13 -21 -18 -47 -18 -99 0 -63 3 -76 28 -108 24 -31 26 -38 13 -43 -25 -10
-63 22 -76 62 -22 67 3 160 57 210 27 25 38 31 28 14z m225 -498 c22 -12 44
-35 58 -62 l22 -44 -47 -48 c-53 -54 -74 -59 -93 -23 -10 20 -11 27 0 40 17
21 5 59 -23 72 -27 13 -43 63 -24 75 21 13 71 8 107 -10z"/>
<path d="M975 1768 c-12 -115 26 -268 90 -365 20 -29 33 -53 31 -53 -2 0 -23
7 -46 15 -23 8 -44 15 -47 15 -2 0 -3 -21 -1 -47 2 -36 0 -47 -10 -45 -8 1
-10 -2 -7 -8 4 -6 11 -10 17 -8 6 2 26 -12 44 -30 19 -19 37 -32 41 -28 3 3
-6 15 -20 26 -25 20 -65 105 -54 116 3 3 22 1 44 -5 43 -12 70 -14 60 -5 -3 4
5 21 19 40 29 38 54 113 53 158 0 24 -2 27 -8 12 -6 -16 -14 -12 -72 34 -64
51 -118 119 -120 149 -1 9 0 33 1 54 3 60 -8 42 -15 -25z"/>
<path d="M2267 1394 c-5 -17 -16 -40 -26 -51 -18 -19 -18 -20 13 -32 l31 -13
-45 -14 c-63 -19 -130 -81 -193 -177 -62 -93 -77 -132 -77 -193 l0 -43 45 19
45 19 -6 -27 c-4 -15 -14 -51 -24 -79 -9 -29 -15 -53 -13 -53 2 0 20 7 40 15
63 27 66 23 33 -66 -16 -44 -40 -100 -54 -125 -13 -24 -24 -44 -23 -44 1 0 17
4 35 9 36 11 38 9 18 -22 -19 -28 -56 -141 -55 -164 0 -10 5 -2 11 17 10 33
11 34 19 13 13 -35 92 -109 124 -117 38 -10 74 17 93 69 25 66 21 281 -7 474
l-25 165 62 55 c34 31 62 64 62 73 0 31 -32 112 -56 145 -19 25 -21 32 -9 37
23 8 18 25 -10 32 -24 6 -24 7 -9 36 8 16 14 39 12 51 -3 18 -5 17 -11 -9z"/>
<path d="M1813 1369 c-32 -9 -63 -42 -63 -67 0 -7 21 -22 46 -34 78 -34 164
-9 164 48 0 43 -82 73 -147 53z"/>
<path d="M1150 1193 c-25 -8 -52 -21 -61 -29 -23 -20 -31 -17 -19 7 7 11 9 23
6 26 -3 3 -12 -9 -20 -28 -18 -42 -14 -47 19 -25 30 19 30 15 8 -49 l-16 -49
33 -26 c18 -14 46 -37 63 -51 l31 -26 -13 -139 c-7 -77 -19 -179 -27 -229 -7
-49 -14 -130 -14 -178 0 -133 29 -179 106 -164 23 4 25 2 18 -27 -3 -17 -17
-57 -29 -88 -13 -32 -20 -58 -15 -58 15 0 51 87 57 138 4 39 12 55 33 70 37
28 116 134 151 205 16 31 42 94 57 140 24 72 27 98 27 207 0 111 -3 130 -23
172 -45 92 -218 219 -296 218 -17 -1 -51 -8 -76 -17z"/>
<path d="M406 700 c4 -8 51 -80 105 -160 100 -147 144 -202 189 -232 25 -17
23 -17 -60 -19 l-85 -2 71 -7 c39 -4 95 -11 125 -16 l54 -8 -44 -7 c-24 -5
-46 -11 -49 -14 -7 -6 181 -185 188 -178 5 5 -65 73 -138 134 l-43 36 61 7
c33 4 58 11 55 16 -3 4 -39 27 -80 50 -79 43 -124 91 -265 289 -84 118 -91
127 -84 111z"/>
</g>
</svg>
