<svg width="300" height="300" xmlns="http://www.w3.org/2000/svg">
 <!-- Created with Method Draw - http://github.com/duopixel/Method-Draw/ -->

 <g id="Layer_1">
  <title>Layer 1</title>
  <text font-style="normal" font-weight="normal" xml:space="preserve" text-anchor="start" font-family="'Great Vibes'" font-size="25" id="svg_1" y="236.33333" x="160.68608" opacity="undefined" stroke-dasharray="null" fill="#000000">freat pleasure</text>
  <text stroke="#2f5e58" xml:space="preserve" text-anchor="start" font-family="'Great Vibes'" font-size="60" id="svg_2" y="173.39716" x="27.91384" opacity="undefined" fill-opacity="null" stroke-dasharray="null" stroke-width="null" fill="#000000">YourCakes</text>
  <ellipse fill="none" stroke-width="null" stroke-dasharray="null" opacity="undefined" cx="148.5" cy="146.33333" id="svg_4" rx="72" ry="73" stroke="#000000"/>
  <path stroke="#192826" id="svg_5" d="m267.45746,171.90251l6.5808,0c0.94858,-0.00151 1.59571,-0.68638 1.59255,-1.39097l0,-0.47376c1.87806,-0.00127 3.24063,-1.21167 3.23992,-2.62307c0.0007,-1.43653 -1.33511,-2.61674 -2.88996,-2.61572l-10.14352,0l0,5.71267c0.00147,0.77576 0.77981,1.38946 1.62021,1.39085zm8.17314,-6.02895l0,0l0.34996,0c1.28667,-0.00175 1.6994,1.04286 1.69322,1.54899c0.00126,0.81722 -0.70378,1.601 -2.04318,1.52494l0,-3.07393zm-13.41959,6.37681c0.00119,1.05594 0.93889,1.54561 1.69364,1.54863l13.613,0c0.90028,-0.00301 1.68936,-0.61069 1.69336,-1.54863l-17,0z" opacity="undefined" fill-opacity="null" stroke-opacity="null" stroke-dasharray="null" stroke-width="null" fill="#666666"/>
 </g>
</svg>