<svg width="800" height="600" xmlns="http://www.w3.org/2000/svg">
 <!-- Created with Method Draw - http://github.com/duopixel/Method-Draw/ -->

 <g stroke="null" id="Layer_1">
  <title>Layer 1</title>
  <path stroke="#000" fill="#B6C7EA" stroke-width="null" stroke-opacity="null" opacity="undefined" d="m185.52128,369.40688c-0.78658,-1.68752 -7.8658,-10.96886 -8.52128,-11.25011c0.65548,0.28125 8.52128,-5.62506 8.52128,-6.46882c0,-0.84376 11.79869,1.68752 11.14321,1.40627c0.65548,0.28125 -7.9969,-47.81297 -8.65238,-48.09422c0.65548,0.28125 6.16154,12.09387 5.50606,11.81262c0.65548,0.28125 3.8018,11.25011 3.14632,10.96886c0.65548,0.28125 -0.1311,7.03132 -0.78658,6.75007c0.65548,0.28125 3.8018,25.594 3.14632,25.31275c0.65548,0.28125 -5.63716,7.03132 -6.29264,6.75007c0.65548,0.28125 -6.42374,4.50004 -7.21032,2.81252l0.00001,-0.00001z" id="svg_1"/>
  <path stroke="#000" fill="#B6C7EA" stroke-width="null" stroke-opacity="null" fill-opacity="null" opacity="undefined" d="m238.93898,389.45097l-2.54947,-7.98039l7.98096,-6.47059l6.6508,3.23529l1.99524,9.70588c0.55423,0.21568 -6.09657,5.39215 -6.76165,5.39215c-0.66508,0 -32.58891,-2.58823 -7.31588,-3.88235l0,0.00001z" id="svg_2"/>
  <path stroke="#000" id="svg_3" d="m164.69858,350.35627c0,-1.79579 -8.086,-12.57055 -8.69858,-12.86985c0.61257,0.2993 6.4933,-8.67967 5.88073,-8.97897c0.61257,0.2993 11.63894,2.09509 11.02637,1.79579c0.61257,0.2993 2.08276,5.68668 1.47018,5.38738c0.61257,0.2993 -6.73834,-46.39134 -7.35091,-46.69063c0.61257,0.2993 11.63894,17.35933 11.02637,17.06004c0.61257,0.2993 -0.85761,13.76775 -1.47018,13.46845c0.61257,0.2993 0.61257,21.84882 0,21.54952c0.61257,0.2993 -11.88398,11.07406 -11.88398,9.27826l0,0.00001z" opacity="undefined" fill-opacity="null" stroke-opacity="null" stroke-dasharray="null" stroke-width="null" fill="#B6C7EA"/>
  <line stroke="#000" stroke-linecap="null" stroke-linejoin="null" id="svg_4" y2="349.33334" x2="249.83333" y1="349.33334" x1="51.83333" opacity="undefined" stroke-opacity="null" stroke-dasharray="null" stroke-width="null" fill="none"/>
  <line stroke="#000" stroke-linecap="null" stroke-linejoin="null" id="svg_5" y2="329.33333" x2="177.83333" y1="330.33333" x1="177.83333" opacity="undefined" stroke-opacity="null" stroke-dasharray="null" stroke-width="null" fill="none"/>
  <line stroke="#000" stroke-linecap="null" stroke-linejoin="null" id="svg_6" y2="317.3335" x2="270.83333" y1="335.3335" x1="51.83333" opacity="undefined" fill-opacity="null" stroke-opacity="null" stroke-dasharray="null" stroke-width="null" fill="none"/>
  <line stroke="#000" stroke-linecap="null" stroke-linejoin="null" id="svg_7" y2="373.33332" x2="224.83333" y1="360.33332" x1="51.83334" opacity="undefined" fill-opacity="null" stroke-opacity="null" stroke-dasharray="null" stroke-width="null" fill="none"/>
  <line stroke="#000" stroke-linecap="null" stroke-linejoin="null" id="svg_8" y2="300.33333" x2="273.83334" y1="326.33333" x1="56.83333" opacity="undefined" fill-opacity="null" stroke-opacity="null" stroke-dasharray="null" stroke-width="null" fill="none"/>
  <path stroke="#000" fill="#B6C7EA" stroke-width="null" stroke-dasharray="null" stroke-opacity="null" opacity="undefined" d="m136.98835,361.33334l-12.98835,-10.34268l7.88057,-10.08411l9.63181,0.7757l-6.12933,-35.68225c0.72968,0.25857 9.48587,4.91277 10.36149,4.91277c0.87562,0 12.25867,10.85981 11.52898,10.60125c0.72968,0.25857 2.48092,10.34268 1.75124,10.08411c0.72968,0.25857 -8.02651,-11.37695 -8.02651,-11.37695c0,0 -12.25867,-8.53271 -12.98835,-8.79128c0.72968,0.25857 7.73463,44.47352 7.00495,44.21496c0.72968,0.25857 -8.02651,5.68847 -8.02651,5.68847l0.00001,0.00001z" id="svg_9"/>
  <line stroke="#000" fill="none" stroke-width="null" stroke-dasharray="null" stroke-opacity="null" fill-opacity="null" opacity="undefined" x1="52.83333" y1="368.33333" x2="200.83334" y2="392.33333" id="svg_10" stroke-linejoin="null" stroke-linecap="null"/>
  <path stroke="#000" id="svg_11" d="m62.32778,361.19486l-2.92778,-9.09497l9.3,-1.60499l9.3,10.43246l-12.4,5.61748l-11.36667,0l-5.16667,-7.22248l1.03333,-8.82747l13.43333,-8.02497l14.46667,-7.22248l-3.1,-10.43246l-10.33333,-4.81498l-5.16667,6.41998c0.86111,0.2675 9.12778,5.08248 9.12778,5.08248c0,0 -4.13333,43.33485 -4.99444,43.06735c0.86111,0.2675 -7.40556,5.08248 -8.26667,4.81498c0.86111,0.2675 -7.40556,0.2675 -8.26667,0c0.86111,0.2675 4.99444,5.88498 4.13333,5.61748" opacity="undefined" stroke-opacity="null" stroke-dasharray="null" stroke-width="null" fill="#B6C7EA"/>
  <ellipse stroke="#000" ry="76" rx="74.5" id="svg_12" cy="337.33333" cx="163.33333" opacity="undefined" fill-opacity="null" stroke-opacity="null" stroke-dasharray="null" stroke-width="null" fill="none"/>
 </g>
</svg>