<svg enable-background="new 0 0 850 500" viewBox="0 0 850 500" xmlns="http://www.w3.org/2000/svg"><g fill="#3c3c3c"><path d="m582.9 419.1 25.1-21.3h11.5v71.6h14.8v10.7h-45.4v-10.7h16.6v-47.8c0-1.8.1-3.8.2-5.8l-11.8 9.9c-.7.5-1.3.8-2 1s-1.3.2-1.9 0c-.6-.1-1.1-.3-1.6-.6s-.8-.6-1-.9z"/><path d="m646.1 423.8c0-3.7.7-7.1 2.1-10.4 1.4-3.2 3.3-6.1 5.7-8.5 2.5-2.4 5.4-4.4 8.8-5.8s7.3-2.1 11.4-2.1c4.2 0 8 .7 11.4 2s6.2 3.2 8.6 5.6 4.2 5.3 5.5 8.6 1.9 7 1.9 11c0 2.5-.2 4.9-.6 7.2s-1 4.5-1.8 6.6-1.8 4.2-2.9 6.1c-1.2 2-2.4 4-3.8 5.9l-18.8 26.8c-.6.9-1.6 1.7-2.9 2.3s-2.8.9-4.4.9h-12.9l25.5-31.8c.6-.8 1.2-1.6 1.8-2.4.6-.7 1.1-1.5 1.6-2.2-1.9 1.2-4 2.1-6.2 2.8-2.3.6-4.7.9-7.1.9-2.8 0-5.6-.5-8.4-1.5-2.7-1-5.2-2.5-7.3-4.4-2.1-2-3.8-4.4-5.1-7.4-1.5-2.8-2.1-6.2-2.1-10.2m14-1c0 4.5 1.2 8 3.5 10.4 2.4 2.4 5.7 3.6 10.1 3.6 2.3 0 4.3-.4 6.1-1.1s3.3-1.7 4.5-2.9 2.1-2.7 2.8-4.4c.6-1.7 1-3.5 1-5.4 0-2.2-.3-4.2-1-5.9-.7-1.8-1.7-3.2-2.9-4.4-1.3-1.2-2.7-2.1-4.5-2.7-1.7-.6-3.6-1-5.6-1-2.1 0-4 .4-5.7 1-1.7.7-3.2 1.7-4.4 2.9s-2.1 2.7-2.8 4.4c-.8 1.6-1.1 3.4-1.1 5.5"/><path d="m712.2 471.3 4.3-6c.9-1.3 2.1-2 3.5-2 1 0 1.9.3 2.9.9s2.1 1.3 3.4 2 2.8 1.4 4.5 2 3.8.9 6.2.9c2.6 0 4.9-.4 6.8-1.2 2-.8 3.6-2 4.9-3.5s2.3-3.3 2.9-5.3c.7-2.1 1-4.3 1-6.7 0-4.5-1.3-8-3.9-10.5s-6.4-3.8-11.5-3.8c-3.9 0-7.9.6-12 1.9l-8.8-2.2 6.8-39.9h40.5v5.9c0 2-.6 3.6-1.9 4.8s-3.4 1.9-6.4 1.9h-22.5l-3 17.3c3.7-1 7-1.5 10.1-1.5 4.3 0 8.1.6 11.4 2 3.3 1.3 6 3.1 8.3 5.4 2.2 2.3 3.9 5 5 8 1.1 3.1 1.7 6.4 1.7 9.9 0 4.4-.8 8.4-2.3 12s-3.6 6.7-6.4 9.3c-2.7 2.6-5.9 4.6-9.7 6-3.7 1.4-7.8 2.1-12.2 2.1-2.6 0-5-.3-7.3-.8s-4.5-1.2-6.5-2.1-3.9-1.9-5.6-3.1c-1.3-1.2-2.9-2.4-4.2-3.7"/><path d="m776.9 459.2 6.2-2.6c1.6-.7 3.2-.8 4.6-.5s2.4 1.1 3.1 2.3c.7 1.3 1.4 2.6 2.2 3.9s1.8 2.4 2.9 3.4 2.5 1.8 4 2.4 3.4.9 5.5.9c2.4 0 4.5-.4 6.2-1.2 1.8-.8 3.2-1.8 4.4-3s2.1-2.6 2.7-4.2c.6-1.5.9-3.1.9-4.6 0-2-.2-3.7-.6-5.4-.4-1.6-1.3-3-2.6-4.1-1.3-1.2-3.2-2.1-5.7-2.7s-5.8-1-9.9-1v-10c3.4 0 6.3-.4 8.6-1s4.1-1.4 5.4-2.5 2.3-2.4 2.8-3.9.8-3.2.8-5c0-3.9-1.1-6.8-3.2-8.8-2.2-2-5-3-8.6-3-1.7 0-3.2.2-4.6.7s-2.7 1.1-3.8 2-2 1.8-2.8 3c-.8 1.1-1.3 2.4-1.7 3.8-.6 1.7-1.5 2.9-2.5 3.5-1.1.6-2.5.7-4.4.4l-7.4-1.3c.6-3.9 1.6-7.4 3.3-10.3 1.6-3 3.7-5.5 6.1-7.5 2.5-2 5.3-3.5 8.4-4.5 3.2-1 6.6-1.5 10.2-1.5 3.8 0 7.2.5 10.2 1.6s5.6 2.6 7.7 4.5 3.7 4.2 4.9 6.7c1.1 2.6 1.7 5.4 1.7 8.4 0 2.6-.3 4.9-.9 6.9s-1.4 3.7-2.5 5.2-2.4 2.7-4 3.8c-1.6 1-3.4 1.9-5.4 2.6 4.9 1.6 8.6 3.9 11 7.1s3.7 7.2 3.7 12c0 4.1-.8 7.7-2.3 10.9-1.5 3.1-3.6 5.8-6.2 7.9-2.6 2.2-5.6 3.8-9 4.9s-7 1.6-10.7 1.6c-4.1 0-7.7-.5-10.8-1.4s-5.7-2.3-8-4.2c-2.3-1.8-4.2-4.1-5.8-6.8-1.7-2.7-3-5.8-4.1-9.4"/><path d="m833.7 167.7-177.9 148.1-16.1-12.1 50.5-111.8-26-.7-2.3-6.6-13.4-37.2-136.7 167.9-.6.8-134.2 164.9-17.3-11 74.4-153.9.4-.8 52.2-107.8-114.8 107.8-.8.8-.1.1-.2-.1-1-.8-15.2-11.1 48.8-101.1-125.6 112.2-.8.8-1.2 1-1.5-1-1-.8-13.8-10.1 108.8-238.9-295.6 249-.8.8-40.9 34.4-13.4-15.8 22.2-18.6.9-.8 349.3-294.3 16.1 12.2-107.4 235.8 129.8-115.9 16.2 12.2-47.3 97.7 115.8-108.7 16.3 12-72.1 149-.3.8-40.4 83.3 67.9-83.3.6-.8 158.8-195.1h.1l11.5-14.2 6.2 17.2 17.1 47.7 27.4.7 15.5.4-6.4 14.2-38.4 85.1 143.5-119.5z"/></g></svg>